<?xml version="1.0" standalone="no"?>
<!DOCTYPE svg PUBLIC "-//W3C//DTD SVG 20010904//EN"
 "http://www.w3.org/TR/2001/REC-SVG-20010904/DTD/svg10.dtd">
<svg version="1.0" xmlns="http://www.w3.org/2000/svg"
 width="360.000000pt" height="360.000000pt" viewBox="0 0 360.000000 360.000000"
 preserveAspectRatio="xMidYMid meet">

<g transform="translate(0.000000,360.000000) scale(0.100000,-0.100000)"
fill="#000000" stroke="none">
<path d="M1871 2974 c-18 -15 -31 -35 -31 -49 0 -18 -7 -24 -37 -30 -59 -11
-134 -42 -191 -80 -52 -34 -57 -35 -151 -35 -102 0 -141 -13 -141 -49 0 -34
21 -41 130 -41 116 0 150 -12 150 -54 0 -42 -15 -46 -185 -46 -169 0 -185 -4
-185 -45 0 -37 19 -45 115 -45 97 0 135 -14 135 -50 0 -45 -20 -50 -215 -50
-172 0 -185 -1 -195 -19 -14 -27 -13 -37 6 -55 14 -14 95 -16 741 -16 l725 0
-7 63 c-8 73 -44 182 -80 244 -39 65 -136 164 -199 202 -31 19 -94 46 -139 61
-59 20 -83 33 -85 46 -2 11 -16 31 -30 47 -35 37 -88 37 -131 1z"/>
<path d="M2876 1282 c-2 -4 -3 -35 -2 -70 2 -34 0 -62 -3 -62 -3 1 -17 7 -31
15 -34 20 -79 18 -119 -3 -92 -49 -95 -207 -6 -262 38 -24 103 -26 131 -5 23
17 35 19 32 4 -2 -7 12 -12 32 -13 l35 -1 0 200 0 199 -32 3 c-18 1 -34 -1
-37 -5z m-23 -191 c53 -52 16 -145 -58 -145 -27 0 -43 6 -56 23 -21 26 -25 81
-8 112 21 41 85 46 122 10z"/>
<path d="M658 1273 c-2 -5 -3 -93 -3 -197 l0 -188 38 -3 37 -2 0 89 0 88 60 0
60 0 0 35 0 35 -60 0 -60 0 0 40 0 40 60 0 60 0 0 35 0 35 -94 0 c-52 0 -96
-3 -98 -7z"/>
<path d="M1520 1225 c0 -48 -2 -55 -20 -55 -16 0 -20 -7 -20 -30 0 -23 4 -30
20 -30 19 0 20 -7 20 -110 0 -98 2 -110 18 -111 9 0 25 -2 35 -4 15 -3 17 8
17 111 0 107 1 114 20 114 16 0 20 7 20 30 0 23 -4 30 -20 30 -18 0 -20 7 -20
55 l0 55 -35 0 -35 0 0 -55z"/>
<path d="M1710 1082 l0 -199 23 3 c12 1 28 3 35 3 8 1 12 25 12 86 l0 85 60 0
60 0 0 35 0 35 -61 0 -60 0 3 38 3 37 58 3 57 3 0 34 0 35 -95 0 -95 0 0 -198z"/>
<path d="M963 1160 c-43 -26 -63 -68 -63 -131 0 -113 100 -183 192 -135 18 10
28 11 31 3 2 -6 18 -11 35 -12 l32 -1 0 143 0 143 -34 0 c-19 0 -36 -5 -38
-12 -3 -8 -11 -7 -28 5 -32 23 -88 21 -127 -3z m142 -71 c13 -13 20 -32 20
-60 0 -79 -89 -116 -137 -58 -20 24 -24 80 -7 110 22 42 85 46 124 8z"/>
<path d="M1298 1164 c-15 -8 -31 -26 -34 -39 -11 -46 4 -74 61 -111 30 -19 55
-41 55 -50 0 -24 -31 -29 -63 -10 -29 16 -31 16 -50 -5 l-21 -22 28 -23 c41
-36 108 -33 147 5 53 54 30 121 -55 156 -42 18 -50 29 -32 44 11 10 21 9 44
-3 26 -14 30 -13 45 5 23 26 22 32 -12 52 -35 21 -77 21 -113 1z"/>
<path d="M2040 1169 c-99 -40 -124 -170 -46 -247 34 -35 40 -37 99 -37 78 0
118 25 142 90 21 55 14 103 -22 146 -44 52 -113 72 -173 48z m121 -91 c37 -61
2 -132 -65 -132 -51 0 -76 27 -76 81 0 57 25 83 80 83 35 0 43 -5 61 -32z"/>
<path d="M2372 1160 c-53 -32 -74 -75 -69 -143 3 -50 8 -63 38 -93 86 -86 237
-38 254 80 19 123 -119 219 -223 156z m134 -71 c27 -29 25 -93 -4 -121 -27
-28 -83 -29 -112 -3 -29 26 -28 97 2 125 29 27 89 27 114 -1z"/>
<path d="M1020 670 l0 -70 39 0 c48 0 91 31 91 66 0 39 -42 74 -90 74 l-40 0
0 -70z m78 34 c27 -19 28 -45 3 -68 -29 -27 -54 -17 -59 23 -6 60 12 76 56 45z"/>
<path d="M1250 670 l0 -70 55 0 c30 0 55 5 55 10 0 6 -18 10 -40 10 -33 0 -40
3 -40 20 0 16 7 20 35 20 19 0 35 5 35 10 0 6 -16 10 -35 10 -28 0 -35 4 -35
20 0 17 7 20 40 20 22 0 40 5 40 10 0 6 -25 10 -55 10 l-55 0 0 -70z"/>
<path d="M1460 670 l0 -70 50 0 c28 0 50 5 50 10 0 6 -16 10 -35 10 l-35 0 0
60 c0 47 -3 60 -15 60 -12 0 -15 -14 -15 -70z"/>
<path d="M1660 670 c0 -56 3 -70 15 -70 12 0 15 14 15 70 0 56 -3 70 -15 70
-12 0 -15 -14 -15 -70z"/>
<path d="M1794 724 c4 -11 17 -43 28 -71 27 -74 46 -70 79 15 15 37 25 69 23
71 -11 12 -35 -14 -45 -48 -7 -23 -16 -41 -20 -41 -4 0 -14 19 -21 43 -9 25
-22 43 -33 46 -14 2 -16 -1 -11 -15z"/>
<path d="M2028 708 c-2 -18 -1 -50 1 -70 l3 -38 49 0 c57 0 66 17 12 22 -49 4
-53 32 -5 36 17 2 32 7 32 12 0 5 -15 10 -32 12 -48 4 -44 32 5 36 55 5 45 22
-12 22 -49 0 -50 -1 -53 -32z"/>
<path d="M2240 670 c0 -68 12 -91 25 -50 3 11 13 20 20 20 8 0 19 -9 25 -20 6
-11 17 -20 25 -20 18 0 19 5 3 30 -11 17 -10 22 1 29 7 5 14 21 14 36 0 34
-17 45 -70 45 l-43 0 0 -70z m77 39 c17 -17 4 -39 -22 -39 -23 0 -40 24 -29
41 7 13 38 11 51 -2z"/>
<path d="M2450 734 c0 -3 11 -22 25 -42 14 -20 25 -49 25 -64 0 -18 5 -28 15
-28 10 0 15 10 15 31 0 17 8 43 18 57 33 48 34 52 14 52 -10 0 -24 -11 -30
-25 -6 -14 -15 -25 -20 -25 -5 0 -14 11 -20 25 -10 21 -42 36 -42 19z"/>
</g>
</svg>
